<svg xmlns="http://www.w3.org/2000/svg" width="22" height="21.765" viewBox="0 0 22 21.765"><defs><style>.a,.b{fill:none;stroke:#fff;stroke-linecap:round;stroke-linejoin:round;stroke-miterlimit:10;stroke-width:2px;}.a{opacity:0.4;}</style></defs><g transform="translate(1 1)"><path class="a" d="M7.934.588H0" transform="translate(0.001 15.921)"/><path class="b" d="M6.317,3.256A3.208,3.208,0,0,1,3.159,6.511,3.208,3.208,0,0,1,0,3.256,3.207,3.207,0,0,1,3.159,0,3.207,3.207,0,0,1,6.317,3.256Z" transform="translate(13.682 13.253)"/><path class="a" d="M0,.588H7.935" transform="translate(12.065 2.667)"/><path class="b" d="M0,3.256A3.207,3.207,0,0,0,3.159,6.511,3.207,3.207,0,0,0,6.317,3.256,3.208,3.208,0,0,0,3.159,0,3.208,3.208,0,0,0,0,3.256Z"/></g></svg>