<svg xmlns="http://www.w3.org/2000/svg" width="34" height="34" viewBox="0 0 34 34"><defs><style>.a,.c,.d{fill:none;}.b{opacity:0.5;}.c,.d{stroke:#434343;stroke-linecap:round;stroke-linejoin:round;stroke-miterlimit:10;stroke-width:1.5px;}.d{opacity:0.4;}</style></defs><g transform="translate(-1117 -1479)"><rect class="a" width="34" height="34" transform="translate(1117 1479)"/><g class="b" transform="translate(1126.25 1486.75)"><g transform="translate(-0.75 -0.75)"><path class="c" d="M10.487,0H3.834A3.82,3.82,0,0,0,0,3.729V14.442a3.827,3.827,0,0,0,3.834,3.911h7.989a3.887,3.887,0,0,0,3.729-3.911V5.276Z" transform="translate(0.75 0.762)"/><path class="c" d="M0,0V2.909A2.574,2.574,0,0,0,2.568,5.484c1.317,0,2.664,0,2.755,0" transform="translate(10.974 0.75)"/><path class="d" d="M5.4.5H0" transform="translate(5.387 13.058)"/><path class="d" d="M3.356.5H0" transform="translate(5.386 8.106)"/></g></g></g></svg>