<svg xmlns="http://www.w3.org/2000/svg" width="34" height="34" viewBox="0 0 34 34"><defs><style>.a,.c,.d{fill:none;}.b{opacity:0.5;}.c,.d{stroke:#434343;stroke-linecap:round;stroke-linejoin:round;stroke-miterlimit:10;stroke-width:1.5px;}.d{opacity:0.4;}</style></defs><g transform="translate(-20 -294)"><rect class="a" width="34" height="34" transform="translate(20 294)"/><g class="b" transform="translate(29.25 301.75)"><g transform="translate(-0.75 -0.75)"><path class="c" d="M10.486,0H3.834A3.82,3.82,0,0,0,0,3.729V14.578a3.713,3.713,0,0,0,3.834,3.775h7.988a3.769,3.769,0,0,0,3.73-3.775v-9.3Z" transform="translate(0.75 0.762)"/><path class="c" d="M0,0V2.909A2.575,2.575,0,0,0,2.569,5.484c1.316,0,2.663,0,2.754,0" transform="translate(10.974 0.75)"/><path class="d" d="M2.451,2.45h0v0h0v0Z" transform="translate(5.893 8.464)"/></g></g></g></svg>