<svg xmlns="http://www.w3.org/2000/svg" width="34" height="34" viewBox="0 0 34 34"><defs><style>.a,.c,.d{fill:none;}.b{opacity:0.5;}.c,.d{stroke:#434343;stroke-linecap:round;stroke-linejoin:round;stroke-miterlimit:10;}.c{stroke-width:1.5px;}.d{stroke-width:0.75px;opacity:0.4;}</style></defs><g transform="translate(-1099 -1434)"><rect class="a" width="34" height="34" transform="translate(1099 1434)"/><g class="b" transform="translate(1104 1443)"><g transform="translate(-0.75 -0.75)"><path class="c" d="M20.212,16.667c2.385,0,3.315-1.519,3.315-3.393V6.1l0-2.7C23.525,1.519,22.594,0,20.211,0H3.316C.933,0,0,1.519,0,3.393v9.881c0,1.874.931,3.393,3.314,3.393Z" transform="translate(0.75 0.75)"/><g transform="translate(1.027 0.514)"><path class="d" d="M5.455,2.729A2.728,2.728,0,1,1,2.727,0,2.729,2.729,0,0,1,5.455,2.729Z" transform="translate(11.362 8.841)"/><path class="d" d="M5.455,2.729A2.728,2.728,0,1,1,2.727,0,2.729,2.729,0,0,1,5.455,2.729Z" transform="translate(14.818 8.841)"/></g></g></g></g></svg>